<svg id="Layer_3" enable-background="new 0 0 64 64" height="512" viewBox="0 0 64 64" width="512" xmlns="http://www.w3.org/2000/svg"><g><path d="m53 47v-11.625l5-4.375v11.092c0 .577-.249 1.125-.683 1.505l-4.317 3.778z" fill="#f2c351"/><path d="m58 19v12l-5 4.375v-12z" fill="#f7d881"/><path d="m53 23.375 5-4.375v-10c0-.537-.212-1.025-.557-1.384l-.002.002-4.441 3.849z" fill="#f2c351"/><path d="m48 27.75v-11.95l5.076-4.4-.076.067v12c0 .132-5 4.283-5 4.283z" fill="#f7d881"/><path d="m53 23.375v12l-5 4.375v-12" fill="#f2c351"/><path d="m53 35.375v12l-5 4.375v-12" fill="#f7d881"/><path d="m48 27.75-6 5.25v-12l6-5.2" fill="#f2c351"/><path d="m48 39.75-6 5.25v-12l6-5.25" fill="#f7d881"/><path d="m48 51.75-6 5.25v-12l6-5.25" fill="#f2c351"/><path d="m41.429 11h12.11l3.904-3.383.001-.001c-.365-.38-.877-.616-1.444-.616h-10z" fill="#669e4f"/><path d="m41.398 11.026 4.602-4.026h-12l-4.571 4h11.919z" fill="#78b75b"/><path d="m29.429 11 4.571-4h-10.282c-.464 0-.913.161-1.271.456l-4.304 3.544z" fill="#669e4f"/><path d="m35.714 16 5.715-5h12.109l-5.769 5z" fill="#78b75b"/><path d="m23.714 16 5.715-5h12l-5.715 5z" fill="#669e4f"/><path d="m12 16 6.071-5h11.358l-5.715 5z" fill="#78b75b"/><path d="m6 21 6.071-5h11.643l-5.714 5z" fill="#669e4f"/><path d="m18 21 5.714-5h12l-5.714 5z" fill="#78b75b"/><path d="m30 21 5.714-5c-.357 0 12.055 0 12.055 0l-5.769 5z" fill="#669e4f"/><path d="m16 33h-8c-1.105 0-2-.895-2-2v-10h12v10c0 1.105-.895 2-2 2z" fill="#e47c6e"/><path d="m28 33h-8c-1.105 0-2-.895-2-2v-10h12v10c0 1.105-.895 2-2 2z" fill="#c66b60"/><path d="m42 33h-10c-1.105 0-2-.895-2-2v-10h12z" fill="#e47c6e"/><path d="m16 45h-8c-1.105 0-2-.895-2-2v-8c0-1.105.895-2 2-2h8c1.105 0 2 .895 2 2v8c0 1.105-.895 2-2 2z" fill="#c66b60"/><path d="m28 45h-8c-1.105 0-2-.895-2-2v-8c0-1.105.895-2 2-2h8c1.105 0 2 .895 2 2v8c0 1.105-.895 2-2 2z" fill="#e47c6e"/><path d="m42 45h-10c-1.105 0-2-.895-2-2v-8c0-1.105.895-2 2-2h10z" fill="#c66b60"/><path d="m16 57h-8c-1.105 0-2-.895-2-2v-8c0-1.105.895-2 2-2h8c1.105 0 2 .895 2 2v8c0 1.105-.895 2-2 2z" fill="#e47c6e"/><path d="m28 57h-8c-1.105 0-2-.895-2-2v-8c0-1.105.895-2 2-2h8c1.105 0 2 .895 2 2v8c0 1.105-.895 2-2 2z" fill="#c66b60"/><path d="m42 57h-10c-1.105 0-2-.895-2-2v-8c0-1.105.895-2 2-2h10z" fill="#e47c6e"/><g fill="#cbc3b6"><path d="m11.707 1.292-1.415 1.415 1.372 1.372c-5.99.666-10.665 5.755-10.665 11.92h2c0-4.987 3.673-9.121 8.454-9.868l-1.161 1.161 1.415 1.415 3-3c.39-.391.39-1.024 0-1.415z"/><path d="m62.999 48h-2c0 2.67-1.04 5.182-2.929 7.071-1.519 1.519-3.443 2.477-5.526 2.799l1.163-1.163-1.415-1.415-3 3c-.39.391-.39 1.024 0 1.414l2.999 3 1.415-1.414-1.372-1.372c2.7-.297 5.202-1.487 7.15-3.435 2.267-2.267 3.515-5.28 3.515-8.485z"/></g></g></svg>