<?xml version="1.0" encoding="iso-8859-1"?>
<!-- Generator: Adobe Illustrator 19.0.0, SVG Export Plug-In . SVG Version: 6.00 Build 0)  -->
<svg version="1.1" id="Capa_1" xmlns="http://www.w3.org/2000/svg" xmlns:xlink="http://www.w3.org/1999/xlink" x="0px" y="0px"
	 viewBox="0 0 511.998 511.998" style="enable-background:new 0 0 511.998 511.998;" xml:space="preserve">
<g>
	<g>
		<path d="M452.084,310.154c-13.828-13.827-34.487-16.749-51.21-8.781l-2.312-2.312C452.568,234.3,449.202,137.56,388.442,76.8
			c-60.76-60.76-157.5-64.126-222.261-10.119l-2.312-2.312c7.967-16.725,5.045-37.383-8.782-51.21
			c-17.547-17.545-46.096-17.545-63.642,0C76.515,28.084,74.297,50.974,84.77,68.28c-27.567,41.114-40.848,90.482-37.511,140.315
			c3.637,54.315,26.863,105.452,65.399,143.987c27.27,27.27,60.855,46.861,97.406,57.281c-26.058,19.966-43.305,51.91-43.305,87.134
			c0,8.284,6.716,15.001,15.001,15.001h180.008c8.284,0,15.001-6.716,15.001-15.001c0-35.216-17.241-67.156-43.291-87.123
			c22.474-6.394,43.914-16.281,63.485-29.403c17.437,10.552,40.289,8.157,55.121-6.674
			C469.63,356.251,469.63,327.701,452.084,310.154z M356.028,87.998l-31.48,31.48c-26.064-23.716-58.931-45.437-92.715-54.939
			C273.608,51.678,320.384,59.481,356.028,87.998z M240.217,246.237l31.546-31.546l81.383,81.383
			c-10.283,2.21-23.753,0.805-39.139-4.323C289.851,283.698,264.054,267.732,240.217,246.237z M311.724,322.403
			c-41.773,12.871-88.598,5.055-124.224-23.449l31.48-31.48C245.14,291.276,277.936,312.91,311.724,322.403z M292.978,193.475
			l31.55-31.55c38.971,43.183,55.21,87.698,49.823,112.925L292.978,193.475z M200.563,89.854c35.003,0,76.827,27.49,102.746,50.862
			l-31.546,31.546l-81.395-81.394C193.487,90.198,196.892,89.854,200.563,89.854z M169.176,112.103l81.373,81.373l-31.55,31.55
			C180.027,181.844,163.787,137.331,169.176,112.103z M197.766,246.26l-31.48,31.48c-28.497-35.617-36.317-82.43-23.459-124.195
			C152.343,187.384,174.11,220.262,197.766,246.26z M112.657,34.371c5.848-5.848,15.365-5.849,21.214,0
			c5.862,5.863,5.863,15.351,0,21.214c-5.849,5.848-15.366,5.848-21.214,0C106.808,49.736,106.808,40.219,112.657,34.371z
			 M345.328,481.996H198.199c6.904-35.677,37.793-63.511,73.565-63.511S338.424,446.319,345.328,481.996z M377.893,357.117
			c-76.19,49.464-178.923,39.35-244.021-25.749c-65.099-65.1-75.214-167.832-25.749-244.023c10.974,3.903,23.425,3.525,34.531-1.765
			l2.312,2.312c-54.005,64.761-50.64,161.5,10.12,222.261c60.67,60.67,157.384,64.223,222.261,10.119l2.312,2.312
			C374.495,333.42,373.904,345.905,377.893,357.117z M345.76,140.692l31.48-31.48c28.498,35.619,36.317,82.431,23.459,124.195
			C391.183,199.568,369.416,166.69,345.76,140.692z M430.869,352.581c-5.849,5.848-15.366,5.848-21.214,0
			c-5.862-5.863-5.863-15.351,0-21.214c5.848-5.847,15.365-5.848,21.214,0C436.718,337.217,436.718,346.733,430.869,352.581z"/>
	</g>
</g>
<g>
</g>
<g>
</g>
<g>
</g>
<g>
</g>
<g>
</g>
<g>
</g>
<g>
</g>
<g>
</g>
<g>
</g>
<g>
</g>
<g>
</g>
<g>
</g>
<g>
</g>
<g>
</g>
<g>
</g>
</svg>
